<svg width="46" height="41" viewBox="0 0 46 41" fill="none" xmlns="http://www.w3.org/2000/svg">
<path d="M23 41C22.3451 41 21.7138 40.7623 21.2217 40.3306C19.3634 38.7027 17.5718 37.1729 15.9911 35.8235L15.9831 35.8165C11.3487 31.86 7.34683 28.4432 4.56238 25.0774C1.44978 21.3146 0 17.747 0 13.8496C0 10.063 1.29607 6.56952 3.6492 4.01238C6.03041 1.42501 9.29778 0 12.8505 0C15.5058 0 17.9375 0.841011 20.078 2.49948C21.1582 3.33662 22.1374 4.36116 23 5.55623C23.863 4.36116 24.8418 3.33662 25.9224 2.49948C28.0628 0.841011 30.4946 0 33.1499 0C36.7022 0 39.9699 1.42501 42.3512 4.01238C44.7043 6.56952 46 10.063 46 13.8496C46 17.747 44.5506 21.3146 41.438 25.077C38.6535 28.4432 34.652 31.8596 30.0183 35.8158C28.4348 37.1673 26.6404 38.6995 24.7779 40.3313C24.2862 40.7623 23.6545 41 23 41ZM12.8505 2.69953C10.0593 2.69953 7.49529 3.81549 5.62997 5.84207C3.73694 7.89925 2.69426 10.7429 2.69426 13.8496C2.69426 17.1275 3.91031 20.0591 6.63686 23.3549C9.27216 26.5407 13.1919 29.8872 17.7305 33.7621L17.7389 33.7691C19.3255 35.1238 21.1242 36.6596 22.9961 38.2994C24.8793 36.6564 26.6808 35.1182 28.2706 33.7614C32.8088 29.8865 36.7282 26.5407 39.3635 23.3549C42.0897 20.0591 43.3057 17.1275 43.3057 13.8496C43.3057 10.7429 42.2631 7.89925 40.37 5.84207C38.5051 3.81549 35.9407 2.69953 33.1499 2.69953C31.1052 2.69953 29.228 3.35068 27.5704 4.6347C26.0933 5.77949 25.0643 7.22665 24.461 8.23924C24.1508 8.75995 23.6047 9.07076 23 9.07076C22.3953 9.07076 21.8492 8.75995 21.539 8.23924C20.9361 7.22665 19.9071 5.77949 18.4296 4.6347C16.772 3.35068 14.8948 2.69953 12.8505 2.69953Z" fill="#956D84"/>
</svg>
