<svg width="18" height="13" viewBox="0 0 18 13" fill="none" xmlns="http://www.w3.org/2000/svg">
<path d="M14.573 9.81397C14.5016 9.81397 14.4302 9.79078 14.3745 9.74389L11.0348 6.96268C10.9181 6.86582 10.9123 6.70249 11.022 6.59893C11.1317 6.49434 11.3145 6.4897 11.4324 6.58759L14.7721 9.36881C14.8888 9.46567 14.8946 9.629 14.7849 9.73256C14.7274 9.78666 14.6508 9.81397 14.573 9.81397Z" fill="#956D84"/>
<path d="M3.42527 9.81451C3.34807 9.81451 3.27087 9.78721 3.21341 9.73311C3.10371 9.62955 3.10951 9.46622 3.22618 9.36936L6.56714 6.58817C6.68439 6.4913 6.86839 6.49543 6.97751 6.5995C7.08721 6.70306 7.0814 6.86639 6.96474 6.96325L3.62378 9.74444C3.56805 9.79133 3.49666 9.81451 3.42527 9.81451Z" fill="#956D84"/>
<path d="M16.5489 12.4001H1.45105C0.651232 12.4001 0 11.8225 0 11.112V2.32852C0 1.61798 0.651232 0.728271 1.45105 0.728271H16.5489C17.3488 0.728271 18 1.61798 18 2.32852V11.112C18 11.8225 17.3488 12.4001 16.5489 12.4001ZM1.45105 1.72698C0.971043 1.72698 1.125 1.9024 1.125 2.32852V11.2145C1.125 11.6406 0.971043 11.3669 1.45105 11.3669H16.5489C17.029 11.3669 16.875 11.5381 16.875 11.112V2.2263C16.875 1.80019 17.029 1.72698 16.5489 1.72698H1.45105Z" fill="#956D84"/>
<path d="M8.99968 8.01465C8.6137 8.01465 8.22772 7.90078 7.93403 7.67357L0.481429 1.9025C0.360702 1.80924 0.347933 1.64643 0.452989 1.53875C0.559206 1.43158 1.00392 1.13545 1.12465 1.22768L8.43715 6.72021C8.80804 7.00719 9.19184 7.00719 9.56215 6.72021L16.8746 1.22766C16.6226 0.932046 17.4297 1.44034 17.5365 1.54802C17.6416 1.6557 17.6294 1.818 17.5086 1.91177L10.0653 7.67305C9.77106 7.90078 9.38566 8.01465 8.99968 8.01465Z" fill="#956D84"/>
</svg>
