<svg width="34" height="34" viewBox="0 0 34 34" fill="none" xmlns="http://www.w3.org/2000/svg">
<circle cx="17" cy="17" r="17" fill="#956D84"/>
<path d="M17.2344 9.00791C13.4521 9.00791 9.86041 8.70923 8.48854 11.8347C7.92188 13.1256 8.00417 14.802 8.00417 17.2025C8.00417 19.309 7.92813 21.2887 8.48854 22.5694C9.85729 25.6967 13.4781 25.3971 17.2323 25.3971C20.8541 25.3971 24.5885 25.7319 25.9771 22.5694C26.5448 21.2656 26.4614 19.6141 26.4614 17.2025C26.4614 14.0012 26.6604 11.9346 24.9114 10.3829C23.1406 8.81095 20.7458 9.00791 17.2302 9.00791H17.2344ZM17 10.3316C24 10.3316 25.5 9.8877 25 20.5401C24.5 24.091 21.2058 24.2784 17.2344 24.2784C10.2782 24.2784 9.30021 23.6471 9.14849 17.2025C8.97629 9.8877 11.5 10.3316 17 10.3316ZM22.1614 11.8449C21.55 11.8449 21.0541 12.285 21.0541 12.8278C21.0541 13.3706 21.55 13.8108 22.1614 13.8108C22.7729 13.8108 23.2687 13.3706 23.2687 12.8278C23.2687 12.285 22.7729 11.8449 22.1614 11.8449ZM17.2344 12.9943C14.6167 12.9943 12.4948 14.8788 12.4948 17.2025C12.4948 19.5263 14.6167 21.4099 17.2344 21.4099C19.8521 21.4099 21.9729 19.5263 21.9729 17.2025C21.9729 14.8788 19.8521 12.9943 17.2344 12.9943ZM17.2344 14.471C21.3021 14.471 21.3073 19.9341 17.2344 19.9341C13.1677 19.9341 13.1614 14.471 17.2344 14.471Z" fill="white"/>
</svg>
