<svg width="18" height="18" viewBox="0 0 18 18" fill="none" xmlns="http://www.w3.org/2000/svg">
<g clip-path="url(#clip0_40_7691)">
<path d="M17.5106 10.8031C17.6365 10.2084 17.7002 9.60274 17.7002 9C17.7002 6.67612 16.7952 4.49135 15.1521 2.84807C13.5088 1.20479 11.324 0.299789 9.00014 0.299789C8.3985 0.299789 7.79288 0.36351 7.19714 0.489578C6.52437 0.168777 5.78018 0 5.03256 0C2.25755 0 0 2.25755 0 5.03242C0 5.77977 0.168777 6.52396 0.489578 7.19714C0.363785 7.79178 0.300064 8.39726 0.300064 9C0.300064 11.3239 1.20506 13.5087 2.84821 15.1519C4.49135 16.7951 6.67612 17.7001 9.00014 17.7001C9.60178 17.7001 10.2073 17.6362 10.8029 17.5104C11.4759 17.8312 12.2201 18 12.9677 18C15.7426 18 18 15.7424 18 12.9677C18 12.2204 17.8312 11.4762 17.5106 10.8031ZM12.9677 16.9453C12.3151 16.9453 11.6926 16.7916 11.1172 16.4884C11.0408 16.4482 10.9564 16.4276 10.8714 16.4276C10.8311 16.4276 10.7908 16.4323 10.7511 16.4416C10.1736 16.5769 9.58461 16.6454 9.00014 16.6454C4.78441 16.6454 1.35475 13.2157 1.35475 9C1.35475 8.41443 1.42328 7.82542 1.55855 7.24933C1.58752 7.1256 1.57091 6.99554 1.51172 6.88307C1.20836 6.30725 1.05469 5.6846 1.05469 5.03242C1.05469 2.83914 2.83914 1.05469 5.03256 1.05469C5.68515 1.05469 6.30753 1.20836 6.88266 1.51144C6.99513 1.57077 7.12518 1.58739 7.24892 1.55841C7.82652 1.42314 8.41566 1.35448 9.00014 1.35448C13.2159 1.35448 16.6455 4.78427 16.6455 9C16.6455 9.58557 16.577 10.1747 16.4417 10.7509C16.4126 10.8747 16.4292 11.0047 16.4884 11.1172C16.7916 11.6929 16.9453 12.3154 16.9453 12.9677C16.9453 15.161 15.161 16.9453 12.9677 16.9453Z" fill="#956D84"/>
<path d="M8.99979 4.92311C10.5553 4.92311 11.8697 5.73582 11.8697 6.69781C11.8697 6.98909 12.1058 7.22516 12.397 7.22516C12.6882 7.22516 12.9244 6.98909 12.9244 6.69781C12.9244 5.90254 12.4886 5.16948 11.6978 4.63348C10.9696 4.14006 10.0115 3.86829 8.99979 3.86829C7.98808 3.86829 7.02994 4.14006 6.30182 4.63348C5.5108 5.16948 5.0752 5.90254 5.0752 6.69781C5.0752 7.49309 5.5108 8.22629 6.30182 8.76228C7.0298 9.25571 7.98795 9.52734 8.99979 9.52734C10.5553 9.52734 11.8697 10.3401 11.8697 11.3022C11.8697 12.2642 10.5553 13.0769 8.99979 13.0769C7.44412 13.0769 6.12988 12.2642 6.12988 11.3022C6.12988 11.0109 5.89381 10.7748 5.60254 10.7748C5.3114 10.7748 5.0752 11.0109 5.0752 11.3022C5.0752 12.0973 5.5108 12.8305 6.30182 13.3665C7.02994 13.8598 7.98808 14.1316 8.99979 14.1316C10.0115 14.1316 10.9696 13.8598 11.6978 13.3665C12.4886 12.8305 12.9244 12.0973 12.9244 11.3022C12.9244 10.5068 12.4886 9.77371 11.6978 9.23772C10.9696 8.74443 10.0115 8.47266 8.99979 8.47266C7.44412 8.47266 6.12988 7.65994 6.12988 6.69781C6.12988 5.73582 7.44412 4.92311 8.99979 4.92311Z" fill="#956D84"/>
</g>
<defs>
<clipPath id="clip0_40_7691">
<rect width="18" height="18" fill="white"/>
</clipPath>
</defs>
</svg>
