<svg width="34" height="34" viewBox="0 0 34 34" fill="none" xmlns="http://www.w3.org/2000/svg">
<circle cx="17" cy="17" r="17" fill="#956D84"/>
<g clip-path="url(#clip0_40_7695)">
<path d="M25.5106 18.8031C25.6365 18.2084 25.7002 17.6027 25.7002 17C25.7002 14.6761 24.7952 12.4913 23.1521 10.8481C21.5088 9.20479 19.324 8.29979 17.0001 8.29979C16.3985 8.29979 15.7929 8.36351 15.1971 8.48958C14.5244 8.16878 13.7802 8 13.0326 8C10.2576 8 8 10.2576 8 13.0324C8 13.7798 8.16878 14.524 8.48958 15.1971C8.36378 15.7918 8.30006 16.3973 8.30006 17C8.30006 19.3239 9.20506 21.5087 10.8482 23.1519C12.4913 24.7951 14.6761 25.7001 17.0001 25.7001C17.6018 25.7001 18.2073 25.6362 18.8029 25.5104C19.4759 25.8312 20.2201 26 20.9677 26C23.7426 26 26 23.7424 26 20.9677C26 20.2204 25.8312 19.4762 25.5106 18.8031ZM20.9677 24.9453C20.3151 24.9453 19.6926 24.7916 19.1172 24.4884C19.0408 24.4482 18.9564 24.4276 18.8714 24.4276C18.8311 24.4276 18.7908 24.4323 18.7511 24.4416C18.1736 24.5769 17.5846 24.6454 17.0001 24.6454C12.7844 24.6454 9.35475 21.2157 9.35475 17C9.35475 16.4144 9.42328 15.8254 9.55855 15.2493C9.58752 15.1256 9.57091 14.9955 9.51172 14.8831C9.20836 14.3073 9.05469 13.6846 9.05469 13.0324C9.05469 10.8391 10.8391 9.05469 13.0326 9.05469C13.6852 9.05469 14.3075 9.20836 14.8827 9.51144C14.9951 9.57077 15.1252 9.58739 15.2489 9.55841C15.8265 9.42314 16.4157 9.35448 17.0001 9.35448C21.2159 9.35448 24.6455 12.7843 24.6455 17C24.6455 17.5856 24.577 18.1747 24.4417 18.7509C24.4126 18.8747 24.4292 19.0047 24.4884 19.1172C24.7916 19.6929 24.9453 20.3154 24.9453 20.9677C24.9453 23.161 23.161 24.9453 20.9677 24.9453Z" fill="white"/>
<path d="M16.9998 12.9231C18.5553 12.9231 19.8697 13.7358 19.8697 14.6978C19.8697 14.9891 20.1058 15.2252 20.397 15.2252C20.6882 15.2252 20.9244 14.9891 20.9244 14.6978C20.9244 13.9025 20.4886 13.1695 19.6978 12.6335C18.9696 12.1401 18.0115 11.8683 16.9998 11.8683C15.9881 11.8683 15.0299 12.1401 14.3018 12.6335C13.5108 13.1695 13.0752 13.9025 13.0752 14.6978C13.0752 15.4931 13.5108 16.2263 14.3018 16.7623C15.0298 17.2557 15.9879 17.5273 16.9998 17.5273C18.5553 17.5273 19.8697 18.3401 19.8697 19.3022C19.8697 20.2642 18.5553 21.0769 16.9998 21.0769C15.4441 21.0769 14.1299 20.2642 14.1299 19.3022C14.1299 19.0109 13.8938 18.7748 13.6025 18.7748C13.3114 18.7748 13.0752 19.0109 13.0752 19.3022C13.0752 20.0973 13.5108 20.8305 14.3018 21.3665C15.0299 21.8598 15.9881 22.1316 16.9998 22.1316C18.0115 22.1316 18.9696 21.8598 19.6978 21.3665C20.4886 20.8305 20.9244 20.0973 20.9244 19.3022C20.9244 18.5068 20.4886 17.7737 19.6978 17.2377C18.9696 16.7444 18.0115 16.4727 16.9998 16.4727C15.4441 16.4727 14.1299 15.6599 14.1299 14.6978C14.1299 13.7358 15.4441 12.9231 16.9998 12.9231Z" fill="white"/>
</g>
<defs>
<clipPath id="clip0_40_7695">
<rect width="18" height="18" fill="white" transform="translate(8 8)"/>
</clipPath>
</defs>
</svg>
